<mxfile host="app.diagrams.net" modified="2023-07-25T09:30:19.190Z" agent="Mozilla/5.0 (Windows NT 10.0; Win64; x64) AppleWebKit/537.36 (KHTML, like Gecko) Chrome/106.0.0.0 Safari/537.36" version="21.3.5" etag="QfkmcOCrUAf7__9JM8nu" type="github">
  <diagram name="Page-1" id="sK46rPZeHwoyeIVVNW6Q">
    <mxGraphModel>
      <root>
        <mxCell id="0" />
        <mxCell id="1" parent="0" />
      </root>
    </mxGraphModel>
  </diagram>
</mxfile>
